<svg width="16" height="12" viewBox="0 0 16 12" fill="none" xmlns="http://www.w3.org/2000/svg">
<path d="M3.64014 9.521C3.45394 9.521 3.30371 9.46387 3.18945 9.34961C3.0752 9.23535 3.01807 9.08936 3.01807 8.91162V7.7373C3.01807 7.55534 3.0752 7.40934 3.18945 7.29932C3.30371 7.18506 3.45394 7.12793 3.64014 7.12793H5.19531C5.38151 7.12793 5.53174 7.18506 5.646 7.29932C5.76025 7.40934 5.81738 7.55534 5.81738 7.7373V8.91162C5.81738 9.08936 5.76025 9.23535 5.646 9.34961C5.53174 9.46387 5.38151 9.521 5.19531 9.521H3.64014ZM1.33594 5.05225V3.56689H14.9263V5.05225H1.33594ZM2.70068 11.9141C2.01514 11.9141 1.49674 11.7406 1.14551 11.3936C0.794271 11.0465 0.618652 10.5345 0.618652 9.85742V2.99561C0.618652 2.31429 0.794271 1.80013 1.14551 1.45312C1.49674 1.10612 2.01514 0.932617 2.70068 0.932617H13.5552C14.2407 0.932617 14.7591 1.10824 15.1104 1.45947C15.4616 1.80648 15.6372 2.31852 15.6372 2.99561V9.85742C15.6372 10.5345 15.4616 11.0465 15.1104 11.3936C14.7591 11.7406 14.2407 11.9141 13.5552 11.9141H2.70068ZM2.77686 10.6699H13.479C13.771 10.6699 13.9953 10.5938 14.1519 10.4414C14.3127 10.2891 14.3931 10.0584 14.3931 9.74951V3.10352C14.3931 2.7946 14.3127 2.56396 14.1519 2.41162C13.9953 2.25505 13.771 2.17676 13.479 2.17676H2.77686C2.48063 2.17676 2.25423 2.25505 2.09766 2.41162C1.94531 2.56396 1.86914 2.7946 1.86914 3.10352V9.74951C1.86914 10.0584 1.94531 10.2891 2.09766 10.4414C2.25423 10.5938 2.48063 10.6699 2.77686 10.6699Z" fill="#1D2519"/>
</svg>
