<svg width="17" height="19" viewBox="0 0 17 19" fill="none" xmlns="http://www.w3.org/2000/svg">
<path d="M3.4375 18.6807C2.48828 18.6807 1.77051 18.4375 1.28418 17.9512C0.797852 17.4707 0.554688 16.7617 0.554688 15.8242V6.73633C0.554688 5.79297 0.797852 5.08105 1.28418 4.60059C1.77051 4.12012 2.48828 3.87988 3.4375 3.87988H13.5625C14.5059 3.87988 15.2207 4.12012 15.707 4.60059C16.1992 5.08105 16.4453 5.79297 16.4453 6.73633V15.8242C16.4453 16.7617 16.2109 17.4707 15.7422 17.9512C15.2734 18.4375 14.6201 18.6807 13.7822 18.6807H3.4375ZM3.54297 16.9492H13.668C13.9668 16.9492 14.2158 16.8438 14.415 16.6328C14.6143 16.4219 14.7139 16.1025 14.7139 15.6748V6.87695C14.7139 6.44922 14.6025 6.12988 14.3799 5.91895C14.1631 5.70801 13.8525 5.60254 13.4482 5.60254H3.54297C3.13281 5.60254 2.81934 5.70801 2.60254 5.91895C2.3916 6.12988 2.28613 6.44922 2.28613 6.87695V15.6748C2.28613 16.1025 2.3916 16.4219 2.60254 16.6328C2.81934 16.8438 3.13281 16.9492 3.54297 16.9492ZM4.85254 4.24902C4.85254 3.56934 5.01074 2.95703 5.32715 2.41211C5.64941 1.86719 6.08301 1.43359 6.62793 1.11133C7.17871 0.789062 7.80273 0.62793 8.5 0.62793C9.19141 0.62793 9.8125 0.789062 10.3633 1.11133C10.9141 1.43359 11.3477 1.86719 11.6641 2.41211C11.9805 2.95703 12.1387 3.56934 12.1387 4.24902L10.4688 4.25781C10.4688 3.84766 10.3867 3.4873 10.2227 3.17676C10.0586 2.86035 9.82715 2.61426 9.52832 2.43848C9.23535 2.25684 8.89258 2.16602 8.5 2.16602C8.10742 2.16602 7.76172 2.25684 7.46289 2.43848C7.16992 2.61426 6.93848 2.86035 6.76855 3.17676C6.60449 3.4873 6.52246 3.84766 6.52246 4.25781L4.85254 4.24902Z" fill="#FBFBFB"/>
</svg>
