<svg width="14" height="13" viewBox="0 0 14 13" fill="none" xmlns="http://www.w3.org/2000/svg">
<path d="M1.24072 4.37305C0.826009 4.37305 0.618652 4.16146 0.618652 3.73828V2.1958C0.618652 1.51872 0.794271 1.00667 1.14551 0.659668C1.49674 0.312663 2.01514 0.13916 2.70068 0.13916H4.24316C4.66211 0.13916 4.87158 0.346517 4.87158 0.76123C4.87158 1.18018 4.66211 1.38965 4.24316 1.38965H2.77686C2.48063 1.38965 2.25423 1.46582 2.09766 1.61816C1.94531 1.77051 1.86914 2.00114 1.86914 2.31006V3.73828C1.86914 4.16146 1.65967 4.37305 1.24072 4.37305ZM12.5713 4.37305C12.1566 4.37305 11.9492 4.16146 11.9492 3.73828V2.31006C11.9492 2.00114 11.8688 1.77051 11.708 1.61816C11.5514 1.46582 11.3271 1.38965 11.0352 1.38965H9.56885C9.1499 1.38965 8.94043 1.18018 8.94043 0.76123C8.94043 0.346517 9.1499 0.13916 9.56885 0.13916H11.1113C11.8011 0.13916 12.3216 0.312663 12.6729 0.659668C13.0241 1.00667 13.1997 1.51872 13.1997 2.1958V3.73828C13.1997 4.16146 12.9902 4.37305 12.5713 4.37305ZM2.70068 12.7139C2.01514 12.7139 1.49674 12.5382 1.14551 12.187C0.794271 11.84 0.618652 11.328 0.618652 10.6509V9.11475C0.618652 8.69157 0.826009 8.47998 1.24072 8.47998C1.65967 8.47998 1.86914 8.69157 1.86914 9.11475V10.543C1.86914 10.8519 1.94531 11.0825 2.09766 11.2349C2.25423 11.3872 2.48063 11.4634 2.77686 11.4634H4.24316C4.66211 11.4634 4.87158 11.6729 4.87158 12.0918C4.87158 12.5065 4.66211 12.7139 4.24316 12.7139H2.70068ZM9.56885 12.7139C9.1499 12.7139 8.94043 12.5065 8.94043 12.0918C8.94043 11.6729 9.1499 11.4634 9.56885 11.4634H11.0352C11.3271 11.4634 11.5514 11.3872 11.708 11.2349C11.8688 11.0825 11.9492 10.8519 11.9492 10.543V9.11475C11.9492 8.69157 12.1566 8.47998 12.5713 8.47998C12.9902 8.47998 13.1997 8.69157 13.1997 9.11475V10.6509C13.1997 11.328 13.0241 11.84 12.6729 12.187C12.3216 12.5382 11.8011 12.7139 11.1113 12.7139H9.56885ZM3.97656 6.42969C3.97656 6.25195 4.03158 6.10807 4.1416 5.99805C4.25163 5.88379 4.39762 5.82666 4.57959 5.82666H6.31885V4.0874C6.31885 3.9139 6.37386 3.77214 6.48389 3.66211C6.59391 3.54785 6.73356 3.49072 6.90283 3.49072C7.08057 3.49072 7.22445 3.54574 7.33447 3.65576C7.44873 3.76579 7.50586 3.90967 7.50586 4.0874V5.82666H9.24512C9.42285 5.82666 9.56673 5.88379 9.67676 5.99805C9.78678 6.10807 9.8418 6.25195 9.8418 6.42969C9.8418 6.59896 9.78678 6.73861 9.67676 6.84863C9.56673 6.95866 9.42285 7.01367 9.24512 7.01367H7.50586V8.75928C7.50586 8.93278 7.44873 9.07666 7.33447 9.19092C7.22445 9.30094 7.08057 9.35596 6.90283 9.35596C6.73356 9.35596 6.59391 9.30094 6.48389 9.19092C6.37386 9.07666 6.31885 8.93278 6.31885 8.75928V7.01367H4.57959C4.40186 7.01367 4.25586 6.95866 4.1416 6.84863C4.03158 6.73861 3.97656 6.59896 3.97656 6.42969Z" fill="#1D2519"/>
</svg>
