<svg width="21" height="21" viewBox="0 0 21 21" fill="none" xmlns="http://www.w3.org/2000/svg">
<path d="M10.4912 19.2061C10.3857 19.2061 10.2832 19.2031 10.1836 19.1973C10.084 19.1973 9.98438 19.1914 9.88477 19.1797L9.41016 20.085C9.3457 20.2021 9.25781 20.29 9.14648 20.3486C9.03516 20.4072 8.91211 20.4248 8.77734 20.4014C8.64258 20.3721 8.53125 20.3105 8.44336 20.2168C8.36133 20.123 8.30859 20.0088 8.28516 19.874L8.13574 18.8809C7.94238 18.8223 7.75195 18.7578 7.56445 18.6875C7.37695 18.623 7.18945 18.5498 7.00195 18.4678L6.26367 19.1357C6.1582 19.2236 6.04102 19.2764 5.91211 19.2939C5.78906 19.3115 5.66309 19.2852 5.53418 19.2148C5.41699 19.1504 5.33496 19.0566 5.28809 18.9336C5.24707 18.8164 5.23828 18.6904 5.26172 18.5557L5.45508 17.5801C5.30273 17.4629 5.14746 17.3398 4.98926 17.2109C4.83105 17.082 4.68164 16.9473 4.54102 16.8066L3.62695 17.1934C3.49219 17.252 3.36035 17.2637 3.23145 17.2285C3.1084 17.1934 3 17.1201 2.90625 17.0088C2.82422 16.9092 2.77734 16.7949 2.76562 16.666C2.75977 16.5371 2.79199 16.4141 2.8623 16.2969L3.38965 15.4355C3.28418 15.2773 3.18164 15.1104 3.08203 14.9346C2.98242 14.7588 2.88574 14.5801 2.79199 14.3984L1.79004 14.4336C1.65527 14.4453 1.53223 14.416 1.4209 14.3457C1.30957 14.2754 1.2334 14.1729 1.19238 14.0381C1.15137 13.9092 1.14844 13.7861 1.18359 13.6689C1.22461 13.5459 1.29785 13.4404 1.40332 13.3525L2.18555 12.7285C2.13281 12.5352 2.08887 12.3418 2.05371 12.1484C2.02441 11.9492 2.00098 11.7441 1.9834 11.5332L1.02539 11.2256C0.890625 11.1846 0.785156 11.1143 0.708984 11.0146C0.638672 10.9092 0.603516 10.7891 0.603516 10.6543C0.603516 10.5137 0.638672 10.3936 0.708984 10.2939C0.785156 10.1943 0.890625 10.124 1.02539 10.083L1.9834 9.77539C2.00098 9.56445 2.02441 9.3623 2.05371 9.16895C2.08887 8.96973 2.13281 8.77344 2.18555 8.58008L1.40332 7.94727C1.29785 7.86523 1.22461 7.76562 1.18359 7.64844C1.14844 7.52539 1.15137 7.40234 1.19238 7.2793C1.2334 7.14453 1.30957 7.04199 1.4209 6.97168C1.53223 6.90137 1.65527 6.87207 1.79004 6.88379L2.79199 6.91016C2.88574 6.72852 2.98242 6.55273 3.08203 6.38281C3.18164 6.20703 3.28418 6.03125 3.38965 5.85547L2.85352 5.00293C2.78906 4.8916 2.75977 4.77441 2.76562 4.65137C2.77734 4.52246 2.82422 4.4082 2.90625 4.30859C3 4.19727 3.1084 4.12695 3.23145 4.09766C3.35449 4.0625 3.4834 4.07129 3.61816 4.12402L4.54102 4.49316C4.6875 4.36426 4.83691 4.23535 4.98926 4.10645C5.14746 3.97168 5.30273 3.8457 5.45508 3.72852L5.26172 2.76172C5.23242 2.61523 5.24121 2.4834 5.28809 2.36621C5.33496 2.24902 5.41406 2.16113 5.52539 2.10254C5.6543 2.03223 5.7832 2.00586 5.91211 2.02344C6.04102 2.03516 6.1582 2.09082 6.26367 2.19043L7.00195 2.83203C7.18945 2.75586 7.37695 2.68555 7.56445 2.62109C7.75195 2.55078 7.94238 2.48633 8.13574 2.42773L8.28516 1.44336C8.30859 1.30859 8.36133 1.19434 8.44336 1.10059C8.53125 1.00684 8.63965 0.948242 8.76855 0.924805C8.90918 0.895508 9.03516 0.910156 9.14648 0.96875C9.25781 1.02734 9.3457 1.1123 9.41016 1.22363L9.88477 2.12891C9.99023 2.11719 10.0898 2.11133 10.1836 2.11133C10.2832 2.10547 10.3857 2.10254 10.4912 2.10254C10.5908 2.10254 10.6904 2.10547 10.79 2.11133C10.8896 2.11133 10.9922 2.11719 11.0977 2.12891L11.5723 1.22363C11.6309 1.1123 11.7158 1.02734 11.8271 0.96875C11.9443 0.910156 12.0703 0.892578 12.2051 0.916016C12.3398 0.945312 12.4512 1.00684 12.5391 1.10059C12.627 1.19434 12.6797 1.30859 12.6973 1.44336L12.8467 2.43652C13.0342 2.48926 13.2217 2.55078 13.4092 2.62109C13.6025 2.68555 13.79 2.75586 13.9717 2.83203L14.7188 2.18164C14.8184 2.08789 14.9326 2.03516 15.0615 2.02344C15.1904 2.00586 15.3193 2.03223 15.4482 2.10254C15.5596 2.16113 15.6387 2.24902 15.6855 2.36621C15.7383 2.4834 15.75 2.61523 15.7207 2.76172L15.5186 3.72852C15.6709 3.8457 15.8262 3.97168 15.9844 4.10645C16.1426 4.23535 16.292 4.36426 16.4326 4.49316L17.3643 4.12402C17.4932 4.07129 17.6191 4.0625 17.7422 4.09766C17.8711 4.12695 17.9824 4.19727 18.0762 4.30859C18.1523 4.4082 18.1963 4.52246 18.208 4.65137C18.2197 4.77441 18.1904 4.8916 18.1201 5.00293L17.584 5.85547C17.8066 6.19531 18.0088 6.54688 18.1904 6.91016L19.1924 6.88379C19.3271 6.87207 19.4502 6.90137 19.5615 6.97168C19.6729 7.04199 19.749 7.14453 19.79 7.2793C19.8311 7.40234 19.8311 7.52539 19.79 7.64844C19.749 7.76562 19.6787 7.86523 19.5791 7.94727L18.7969 8.58008C18.8438 8.77344 18.8848 8.96973 18.9199 9.16895C18.9551 9.3623 18.9814 9.56445 18.999 9.77539L19.9482 10.083C20.2471 10.1768 20.3965 10.3672 20.3965 10.6543C20.3965 10.9355 20.2471 11.126 19.9482 11.2256L18.999 11.5332C18.9814 11.7441 18.9551 11.9492 18.9199 12.1484C18.8848 12.3418 18.8438 12.5352 18.7969 12.7285L19.5791 13.3525C19.6787 13.4346 19.749 13.54 19.79 13.6689C19.8311 13.792 19.8311 13.915 19.79 14.0381C19.749 14.1729 19.6729 14.2754 19.5615 14.3457C19.4502 14.416 19.3271 14.4453 19.1924 14.4336L18.1904 14.3984C18.0967 14.5801 18 14.7588 17.9004 14.9346C17.8008 15.1104 17.6953 15.2773 17.584 15.4355L18.1201 16.2969C18.1904 16.4141 18.2197 16.5371 18.208 16.666C18.1963 16.7949 18.1523 16.9092 18.0762 17.0088C17.9824 17.1201 17.8711 17.1934 17.7422 17.2285C17.6191 17.2637 17.4902 17.252 17.3555 17.1934L16.4326 16.8066C16.292 16.9473 16.1426 17.082 15.9844 17.2109C15.8262 17.3398 15.6709 17.4629 15.5186 17.5801L15.7207 18.5557C15.791 18.8428 15.7002 19.0625 15.4482 19.2148C15.3193 19.2852 15.1904 19.3115 15.0615 19.2939C14.9326 19.2764 14.8184 19.2207 14.7188 19.127L13.9717 18.4678C13.79 18.5498 13.6055 18.623 13.418 18.6875C13.2305 18.7578 13.04 18.8193 12.8467 18.8721L12.6973 19.874C12.6797 20.0088 12.627 20.123 12.5391 20.2168C12.4512 20.3105 12.3398 20.3691 12.2051 20.3926C12.0703 20.4219 11.9443 20.4072 11.8271 20.3486C11.7158 20.29 11.6309 20.2021 11.5723 20.085L11.0977 19.1797C10.9922 19.1914 10.8896 19.1973 10.79 19.1973C10.6904 19.2031 10.5908 19.2061 10.4912 19.2061ZM10.4912 17.5361C11.4521 17.5361 12.3457 17.3604 13.1719 17.0088C14.0039 16.6572 14.7275 16.168 15.3428 15.541C15.9639 14.9082 16.4473 14.1758 16.793 13.3438C17.1387 12.5117 17.3115 11.6182 17.3115 10.6631C17.3115 9.70215 17.1387 8.80566 16.793 7.97363C16.4473 7.1416 15.9639 6.41211 15.3428 5.78516C14.7275 5.15234 14.0039 4.65723 13.1719 4.2998C12.3457 3.94238 11.4521 3.76367 10.4912 3.76367C9.53613 3.76367 8.64258 3.94238 7.81055 4.2998C6.98438 4.65723 6.26367 5.15234 5.64844 5.78516C5.0332 6.41211 4.55273 7.1416 4.20703 7.97363C3.86133 8.80566 3.68848 9.70215 3.68848 10.6631C3.68848 11.6182 3.86133 12.5117 4.20703 13.3438C4.55273 14.1758 5.0332 14.9082 5.64844 15.541C6.26367 16.168 6.98438 16.6572 7.81055 17.0088C8.64258 17.3604 9.53613 17.5361 10.4912 17.5361ZM8.8125 9.24805L5.89453 4.25586L7.17773 3.5791L10.0254 8.4834L8.8125 9.24805ZM12.5742 11.3574V9.9248H18.2695V11.3574H12.5742ZM10.0342 12.8516L7.07227 17.7207L5.80664 17.0088L8.83008 12.0605L10.0342 12.8516ZM10.4736 13.1152C10.0225 13.1152 9.6123 13.0068 9.24316 12.79C8.87402 12.5674 8.57812 12.2715 8.35547 11.9023C8.13867 11.5273 8.03027 11.1172 8.03027 10.6719C8.03027 10.2148 8.13867 9.80176 8.35547 9.43262C8.57812 9.06348 8.87402 8.77051 9.24316 8.55371C9.6123 8.33105 10.0225 8.21973 10.4736 8.21973C10.9248 8.21973 11.335 8.33105 11.7041 8.55371C12.0791 8.77051 12.375 9.06348 12.5918 9.43262C12.8145 9.80176 12.9258 10.2148 12.9258 10.6719C12.9258 11.1172 12.8145 11.5273 12.5918 11.9023C12.375 12.2715 12.0791 12.5674 11.7041 12.79C11.335 13.0068 10.9248 13.1152 10.4736 13.1152ZM10.4736 11.6562C10.7607 11.6562 10.998 11.5625 11.1855 11.375C11.3789 11.1875 11.4756 10.9531 11.4756 10.6719C11.4756 10.3848 11.3789 10.1475 11.1855 9.95996C10.998 9.7666 10.7607 9.66992 10.4736 9.66992C10.1982 9.66992 9.96387 9.7666 9.77051 9.95996C9.57715 10.1475 9.48047 10.3848 9.48047 10.6719C9.48047 10.9531 9.57715 11.1875 9.77051 11.375C9.96387 11.5625 10.1982 11.6562 10.4736 11.6562Z" fill="#FBFBFB"/>
</svg>
